{"asset":{"generator":"Modov11.2","version":"2.0"},"scene":0,"scenes":[{"nodes":[0,1,2]}],"nodes":[{"name":"Mesh (2)","mesh":0},{"name":"Camera","matrix":[0.8869948983192444,0.0,-0.4617791771888733,0.0,0.019727451726794244,0.9990870356559753,0.037892896682024,0.0,0.46135759353637698,-0.04272053390741348,0.8861851692199707,0.0,1.5480555295944214,0.25803104043006899,2.988758087158203,1.0],"camera":0},{"name":"Texture Group"}],"meshes":[{"primitives":[{"indices":1,"mode":4,"material":1,"attributes":{"POSITION":0,"NORMAL":2,"TEXCOORD_0":3}},{"indices":5,"mode":4,"material":2,"attributes":{"POSITION":4,"NORMAL":6,"TEXCOORD_0":7}},{"indices":9,"mode":4,"material":3,"attributes":{"POSITION":8,"NORMAL":10,"TEXCOORD_0":11}},{"indices":13,"mode":4,"material":4,"attributes":{"POSITION":12,"NORMAL":14,"TEXCOORD_0":15}}]}],"buffers":[{"byteLength":6136,"uri":"cartelbaño.bin"}],"bufferViews":[{"buffer":0,"byteLength":48},{"buffer":0,"byteLength":24,"byteOffset":48},{"buffer":0,"byteLength":48,"byteOffset":72},{"buffer":0,"byteLength":32,"byteOffset":120},{"buffer":0,"byteLength":768,"byteOffset":152},{"buffer":0,"byteLength":360,"byteOffset":920},{"buffer":0,"byteLength":768,"byteOffset":1280},{"buffer":0,"byteLength":512,"byteOffset":2048},{"buffer":0,"byteLength":852,"byteOffset":2560},{"buffer":0,"byteLength":696,"byteOffset":3412},{"buffer":0,"byteLength":852,"byteOffset":4108},{"buffer":0,"byteLength":568,"byteOffset":4960},{"buffer":0,"byteLength":192,"byteOffset":5528},{"buffer":0,"byteLength":96,"byteOffset":5720},{"buffer":0,"byteLength":192,"byteOffset":5816},{"buffer":0,"byteLength":128,"byteOffset":6008}],"accessors":[{"bufferView":0,"type":"VEC3","componentType":5126,"count":4,"min":[-0.20920000970363618,1.1347999572753907,0.04400000721216202],"max":[0.20920000970363618,1.7971999645233155,0.04400000721216202]},{"bufferView":1,"type":"SCALAR","componentType":5125,"count":6},{"bufferView":2,"type":"VEC3","componentType":5126,"count":4},{"bufferView":3,"type":"VEC2","componentType":5126,"count":4},{"bufferView":4,"type":"VEC3","componentType":5126,"count":64,"min":[-0.2240000069141388,1.1200000047683716,-0.05499999225139618],"max":[0.2240000069141388,1.812000036239624,0.07099999487400055]},{"bufferView":5,"type":"SCALAR","componentType":5125,"count":90},{"bufferView":6,"type":"VEC3","componentType":5126,"count":64},{"bufferView":7,"type":"VEC2","componentType":5126,"count":64},{"bufferView":8,"type":"VEC3","componentType":5126,"count":71,"min":[-0.2240000069141388,-0.005999927408993244,-0.05499999225139618],"max":[0.2240000069141388,1.812000036239624,0.029999997466802598]},{"bufferView":9,"type":"SCALAR","componentType":5125,"count":174},{"bufferView":10,"type":"VEC3","componentType":5126,"count":71},{"bufferView":11,"type":"VEC2","componentType":5126,"count":71},{"bufferView":12,"type":"VEC3","componentType":5126,"count":16,"min":[-0.20920000970363618,1.1347999572753907,-0.05499999225139618],"max":[0.20920000970363618,1.7971999645233155,0.04400000721216202]},{"bufferView":13,"type":"SCALAR","componentType":5125,"count":24},{"bufferView":14,"type":"VEC3","componentType":5126,"count":16},{"bufferView":15,"type":"VEC2","componentType":5126,"count":16}],"materials":[{"pbrMetallicRoughness":{"metallicFactor":0.5,"roughnessFactor":0.5}},{"name":"metal2","emissiveFactor":[0.0,0.0,0.0],"alphaMode":"OPAQUE","doubleSided":false,"pbrMetallicRoughness":{"baseColorFactor":[0.027320902794599534,0.027320902794599534,0.027320902794599534,1.0],"metallicFactor":0.0,"roughnessFactor":0.0}},{"name":"cartel","emissiveFactor":[0.0,0.0,0.0],"alphaMode":"OPAQUE","doubleSided":false,"pbrMetallicRoughness":{"baseColorFactor":[1.0,1.0,1.0,1.0],"metallicFactor":0.0,"roughnessFactor":0.0,"baseColorTexture":{"index":0,"texCoord":0}}},{"name":"metal","emissiveFactor":[0.0,0.0,0.0],"alphaMode":"OPAQUE","doubleSided":false,"pbrMetallicRoughness":{"baseColorFactor":[0.13924050331115724,0.13924050331115724,0.13924050331115724,1.0],"metallicFactor":0.25,"roughnessFactor":0.0}},{"name":"metal3","emissiveFactor":[0.0,0.0,0.0],"alphaMode":"OPAQUE","doubleSided":false,"pbrMetallicRoughness":{"baseColorFactor":[0.03954625129699707,0.03954625129699707,0.03954625129699707,1.0],"metallicFactor":0.0,"roughnessFactor":0.0}}],"textures":[{"name":"diff_señalbaño ","sampler":0,"source":0}],"images":[{"mimeType":"image/jpeg","uri":"diff_señalbaño.jpg"}],"samplers":[{}],"cameras":[{"name":"Camera","type":"perspective","perspective":{"znear":0.01,"yfov":0.8726}}]}