# OBJ written from C:\Users\Mountain\Desktop\CR\cartelbaño\cartelbaño.obj
# Units	meters

o Mesh (2)
v 0 -0.00599993 -0.03
v -0.0114805 -0.00599993 -0.0277164
v -0.0212132 -0.00599993 -0.0212132
v -0.0277164 -0.00599993 -0.0114805
v -0.03 -0.00599993 -9.31323e-010
v -0.0277164 -0.00599993 0.0114805
v -0.0212132 -0.00599993 0.0212132
v -0.0114805 -0.00599993 0.0277164
v 0 -0.00599993 0.03
v 0.0114805 -0.00599993 0.0277164
v 0.0212132 -0.00599993 0.0212132
v 0.0277164 -0.00599993 0.0114805
v 0.03 -0.00599993 -9.31323e-010
v 0.0277164 -0.00599993 -0.0114805
v 0.0212132 -0.00599993 -0.0212132
v 0.0114805 -0.00599993 -0.0277164
v 0 1.127 -0.03
v -0.0114805 1.127 -0.0277164
v -0.0212132 1.127 -0.0212132
v -0.0277164 1.127 -0.0114805
v -0.03 1.127 -9.31323e-010
v -0.0277164 1.127 0.0114805
v -0.0212132 1.127 0.0212132
v -0.0114805 1.127 0.0277164
v 0 1.127 0.03
v 0.0114805 1.127 0.0277164
v 0.0212132 1.127 0.0212132
v 0.0277164 1.127 0.0114805
v 0.03 1.127 -9.31323e-010
v 0.0277164 1.127 -0.0114805
v 0.0212132 1.127 -0.0212132
v 0.0114805 1.127 -0.0277164
v -0.2092 1.1348 0.044
v -0.2092 1.7972 0.044
v 0.2092 1.7972 0.044
v 0.2092 1.1348 0.044
v -0.224 1.133 -0.055
v -0.211 1.12 -0.055
v -0.211 1.812 -0.055
v -0.224 1.799 -0.055
v 0.224 1.799 -0.055
v 0.211 1.812 -0.055
v 0.211 1.12 -0.055
v 0.224 1.133 -0.055
v -0.211 1.12 0.058
v -0.211 1.133 0.071
v -0.224 1.133 0.058
v -0.211 1.799 0.071
v -0.211 1.812 0.058
v -0.224 1.799 0.058
v 0.211 1.799 0.071
v 0.224 1.799 0.058
v 0.211 1.812 0.058
v 0.211 1.133 0.071
v 0.211 1.12 0.058
v 0.224 1.133 0.058
v 0.2092 1.7972 -0.055
v -0.2092 1.7972 -0.055
v -0.2092 1.1348 -0.055
v 0.2092 1.1348 -0.055
vn 0 0 -1
vn 0 0 1
vn 0 -1 0
vn -0.382683 0 -0.92388
vn -0.707107 0 -0.707107
vn -0.92388 0 -0.382683
vn -1 0 0
vn -0.92388 0 0.382683
vn -0.707107 0 0.707107
vn -0.382683 0 0.92388
vn 0.382683 0 0.92388
vn 0.707107 0 0.707107
vn 0.92388 0 0.382683
vn 1 0 0
vn 0.92388 0 -0.382683
vn 0.707107 0 -0.707107
vn 0.382683 0 -0.92388
vn 0 1 0
vn -0.673887 -0.302905 0.673887
vn -0.673887 0.302905 0.673887
vn -0.707107 0.707106 0
vn -0.673888 0.673887 0.302906
vn -0.707107 -0.707106 0
vn -0.673888 -0.673887 0.302906
vn -0.302906 0.673887 0.673888
vn 0.302906 0.673887 0.673888
vn 0.673888 0.673887 0.302906
vn 0.707107 0.707106 0
vn 0.673887 -0.302905 0.673887
vn 0.673887 0.302905 0.673887
vn 0.707107 -0.707106 0
vn 0.673888 -0.673887 0.302906
vn 0.302906 -0.673887 0.673888
vn -0.302906 -0.673887 0.673888
vn -0.476511 -0.738834 0.476511
vn -0.47651 -0.47651 0.738834
vn -0.738834 -0.47651 0.47651
vn -0.47651 0.47651 0.738834
vn -0.476511 0.738834 0.476511
vn -0.738834 0.47651 0.47651
vn 0.47651 0.47651 0.738834
vn 0.738834 0.47651 0.47651
vn 0.476511 0.738834 0.476511
vn 0.47651 -0.47651 0.738834
vn 0.476511 -0.738834 0.476511
vn 0.738834 -0.47651 0.47651
vt 0.234764 0.0530941
vt 0.235578 0.341433
vt 0.0538203 0.341433
vt 0.0530067 0.053094
vt 0.983382 0.0825907
vt 0.983382 0.995512
vt 0.383943 0.995512
vt 0.383943 0.0825907
vt 0.025275 0.01
vt 0.0303652 0.01
vt 0.0350678 0.0119479
vt 0.0386671 0.0155472
vt 0.040615 0.0202498
vt 0.040615 0.02534
vt 0.0386671 0.0300426
vt 0.0350678 0.0336419
vt 0.0303652 0.0355898
vt 0.025275 0.0355898
vt 0.0205724 0.0336419
vt 0.0169731 0.0300426
vt 0.0150252 0.02534
vt 0.0150252 0.0202498
vt 0.0169731 0.0155472
vt 0.0205724 0.0119479
vt 0.0284987 0.421997
vt 0.261501 0.421997
vt 0.261501 0.451123
vt 0.0284987 0.451123
vt 0.261501 0.480248
vt 0.0284987 0.480248
vt 0.261501 0.509373
vt 0.0284987 0.509373
vt 0.261501 0.538499
vt 0.0284987 0.538499
vt 0.261501 0.567624
vt 0.0284987 0.567624
vt 0.261501 0.596749
vt 0.0284987 0.596749
vt 0.261501 0.625875
vt 0.0284987 0.625875
vt 0.261501 0.655
vt 0.0284987 0.655
vt 0.261501 0.684125
vt 0.0284987 0.684125
vt 0.261501 0.713251
vt 0.0284987 0.713251
vt 0.261501 0.742376
vt 0.0284987 0.742376
vt 0.261501 0.771501
vt 0.0284987 0.771501
vt 0.261501 0.800627
vt 0.0284987 0.800627
vt 0.261501 0.829752
vt 0.0284987 0.829752
vt 0.261501 0.858877
vt 0.0284987 0.858877
vt 0.261501 0.888003
vt 0.0284987 0.888003
vt 0.299397 0.806212
vt 0.348451 0.80594
vt 0.348447 0.989684
vt 0.299392 0.989956
vt 0.299396 0.0182824
vt 0.348475 0.0180091
vt 0.348476 0.308139
vt 0.299399 0.308413
vt 0.299403 0.316421
vt 0.348474 0.316147
vt 0.348478 0.499943
vt 0.299414 0.500216
vt 0.299417 0.508221
vt 0.348476 0.50795
vt 0.348452 0.797936
vt 0.299398 0.798207
vt 0.291417 0.798251
vt 0.291436 0.508265
vt 0.291431 0.500261
vt 0.291419 0.316467
vt 0.291415 0.308457
vt 0.291411 0.0183267
vt 0.299396 0.0102732
vt 0.348475 0.01
vt 0.291411 0.99
vt 0.291416 0.806256
vt 0.292485 0.802246
vt 0.292504 0.50426
vt 0.292486 0.312458
vt 0.292481 0.0143163
vt 0.353573 0.312116
vt 0.353574 0.50392
vt 0.354901 0.316895
vt 0.354905 0.499123
vt 0.2357 0.384527
vt 0.0539419 0.384527
vt 0.353547 0.80191
vt 0.354901 0.508698
vt 0.354877 0.797117
vt 0.277771 0.0530942
vt 0.278585 0.341433
vt 0.353573 0.0139764
vt 0.354903 0.0187574
vt 0.354904 0.307319
vt 0.0108136 0.341433
vt 0.01 0.0530941
vt 0.354876 0.806688
vt 0.354872 0.988864
vt 0.0528851 0.01
vt 0.234643 0.0100002
mtllib cartelbaño.mtl
usemtl metal2
g Default
f 33/1/1 34/2/1 35/3/1 36/4/1
usemtl metal
f 1/9/3 16/10/3 15/11/3 14/12/3 13/13/3 12/14/3 11/15/3 10/16/3 9/17/3 8/18/3 7/19/3 6/20/3 5/21/3 4/22/3 3/23/3 2/24/3
f 17/25/1 1/26/1 2/27/4 18/28/4
f 18/28/4 2/27/4 3/29/5 19/30/5
f 19/30/5 3/29/5 4/31/6 20/32/6
f 20/32/6 4/31/6 5/33/7 21/34/7
f 21/34/7 5/33/7 6/35/8 22/36/8
f 22/36/8 6/35/8 7/37/9 23/38/9
f 23/38/9 7/37/9 8/39/10 24/40/10
f 24/40/10 8/39/10 9/41/2 25/42/2
f 25/42/2 9/41/2 10/43/11 26/44/11
f 26/44/11 10/43/11 11/45/12 27/46/12
f 27/46/12 11/45/12 12/47/13 28/48/13
f 28/48/13 12/47/13 13/49/14 29/50/14
f 29/50/14 13/49/14 14/51/15 30/52/15
f 30/52/15 14/51/15 15/53/16 31/54/16
f 31/54/16 15/53/16 16/55/17 32/56/17
f 32/56/17 16/55/17 1/57/1 17/58/1
f 41/65/1 57/89/1 42/68/1
f 39/69/1 58/90/1 40/72/1
f 39/69/1 42/68/1 57/91/1 58/92/1
f 37/73/1 59/95/1 38/60/1
f 37/73/1 40/72/1 58/96/1 59/97/1
f 43/82/1 60/100/1 44/64/1
f 41/65/1 44/64/1 60/101/1 57/102/1
f 43/61/1 38/60/1 59/105/1 60/106/1
usemtl metal3
f 58/93/3 57/94/3 35/3/3 34/2/3
f 59/98/14 58/99/14 34/2/14 33/1/14
f 57/103/7 60/104/7 36/4/7 35/3/7
f 60/107/18 59/108/18 33/1/18 36/4/18
usemtl cartel
f 54/5/2 51/6/2 48/7/2 46/8/2
f 45/59/3 38/60/3 43/61/3 55/62/3
f 56/63/14 44/64/14 41/65/14 52/66/14
f 53/67/18 42/68/18 39/69/18 49/70/18
f 50/71/7 40/72/7 37/73/7 47/74/7
f 46/75/19 48/76/20 50/71/20 47/74/19
f 40/72/21 50/71/22 49/70/22 39/69/21
f 38/60/23 45/59/24 47/74/24 37/73/23
f 48/77/25 51/78/26 53/67/26 49/70/25
f 52/66/27 41/65/28 42/68/28 53/67/27
f 56/63/29 52/66/30 51/79/30 54/80/29
f 44/64/31 56/63/32 55/81/32 43/82/31
f 54/83/33 46/84/34 45/59/34 55/62/33
f 45/59/35 46/85/36 47/74/37
f 48/86/38 49/70/39 50/71/40
f 51/87/41 52/66/42 53/67/43
f 54/88/44 55/81/45 56/63/46
